<?xml version="1.0" encoding="UTF-8" standalone="no"?>
<svg
   id="svg"
   width="32"
   height="32"
   viewBox="0 0 32 31.999997"
   version="1.1"
   sodipodi:docname="favicon.svg"
   inkscape:version="1.3.2 (091e20e, 2023-11-25, custom)"
   xmlns:inkscape="http://www.inkscape.org/namespaces/inkscape"
   xmlns:sodipodi="http://sodipodi.sourceforge.net/DTD/sodipodi-0.dtd"
   xmlns="http://www.w3.org/2000/svg"
   xmlns:svg="http://www.w3.org/2000/svg">
  <defs
     id="defs7">
    <rect
       x="192.34152"
       y="79.525818"
       width="258.92126"
       height="122.9876"
       id="rect7" />
    <rect
       x="15.72022"
       y="85.074135"
       width="120.67581"
       height="114.20278"
       id="rect5" />
  </defs>
  <sodipodi:namedview
     id="namedview5"
     pagecolor="#ffffff"
     bordercolor="#000000"
     borderopacity="0.25"
     inkscape:showpageshadow="2"
     inkscape:pageopacity="0.0"
     inkscape:pagecheckerboard="0"
     inkscape:deskcolor="#d1d1d1"
     showgrid="false"
     inkscape:zoom="34.605113"
     inkscape:cx="26.54232"
     inkscape:cy="16.370413"
     inkscape:window-width="2560"
     inkscape:window-height="1369"
     inkscape:window-x="-8"
     inkscape:window-y="-8"
     inkscape:window-maximized="1"
     inkscape:current-layer="svg"
     inkscape:export-bgcolor="#ffffffff">
    <inkscape:page
       x="0"
       y="0"
       width="32"
       height="31.999996"
       id="page5"
       margin="0 0 0 0"
       bleed="0"
       inkscape:export-filename="favicon.png"
       inkscape:export-xdpi="96"
       inkscape:export-ydpi="96" />
  </sodipodi:namedview>
  <g
     id="svgg"
     transform="matrix(0.08953609,0,0,0.11385988,-3.2474938,-2.9633885)"
     style="fill:#1a1a1a">
    <path
       id="path0"
       style="display:inline;fill:#1a1a1a;stroke-width:1.02264"
       d="m 274.19469,27.069818 c -2.27414,-0.50512 -4.33982,2.114599 -6.55208,8.121752 -3.15006,8.550259 -14.69084,36.227451 -18.59072,44.582281 -1.88692,4.043247 -4.59936,10.143664 -6.02566,13.556071 l -2.59393,6.205425 2.11836,1.798333 c 1.165,0.98929 2.29003,1.79833 2.50072,1.79833 1.38086,0 6.02629,-9.50738 16.62699,-34.030136 3.02611,-6.998979 6.72912,-15.469419 8.22876,-18.822084 7.44961,-16.653968 8.41962,-19.820222 6.64423,-21.673251 -0.81746,-0.853101 -1.59863,-1.368347 -2.35667,-1.536721 z m 21.77566,10.114916 c -1.5847,0.234249 -3.18511,2.302624 -5.5554,6.663697 -1.76093,3.238242 -4.04594,7.186211 -5.0777,8.773942 -1.0328,1.587732 -2.55473,4.202285 -3.38408,5.810269 -1.91792,3.722258 -19.2816,32.102078 -22.77765,37.229802 -1.45211,2.130477 -4.38001,6.680426 -6.50759,10.113086 l -3.86811,6.2411 1.11319,1.46263 c 1.63906,2.15275 2.83602,2.76652 4.02064,2.06176 1.06793,-0.6359 11.38396,-15.563196 17.56013,-25.412599 8.66007,-13.808607 13.63942,-21.881038 16.72338,-27.113059 1.79295,-3.042814 4.59071,-7.773777 6.21737,-10.512816 6.34453,-10.684784 6.68978,-11.743652 4.53329,-13.857928 -1.10225,-1.08068 -2.04666,-1.600434 -2.99747,-1.459884 z m 21.18464,13.448135 c -1.51139,0.06196 -3.09999,1.443147 -5.03005,4.246107 -0.98633,1.431793 -3.60148,4.84486 -5.81065,7.583899 -2.21021,2.739039 -5.96129,7.59426 -8.33468,10.789975 -6.00782,8.083457 -17.99214,22.540164 -30.55414,36.85203 -12.90076,14.69866 -12.17805,13.51401 -9.79846,16.05964 1.86524,1.99479 1.9096,2.00891 3.3576,1.07937 2.52211,-1.62014 27.47422,-29.710453 36.27476,-40.834699 26.52655,-33.536778 25.36531,-31.764944 22.59016,-34.484745 -0.90861,-0.8912 -1.78772,-1.328753 -2.69454,-1.291577 z m -112.70935,7.234479 c -0.99046,-0.209352 -1.85762,1.323804 -3.73785,4.359531 -8.88315,14.343249 -11.68086,18.801408 -17.16505,27.343566 -3.32253,5.176328 -7.10317,11.154835 -8.40141,13.285315 -1.29823,2.12947 -4.79677,7.60738 -7.77331,12.17211 -2.97757,4.56574 -6.41938,10.04255 -7.65151,12.17302 -1.23111,2.13048 -3.88672,6.3631 -5.90069,9.40693 -2.01396,3.04282 -6.9535,10.61499 -10.97626,16.82617 -4.02278,6.2112 -7.64605,11.56465 -8.054,11.89678 -0.40692,0.33112 -2.23273,3.09401 -4.05666,6.13682 -3.35971,5.60668 -9.14879,14.72597 -15.10601,23.79265 -10.11903,15.41004 -28.12224,41.20127 -37.296864,56.45254 -1.779046,2.883 -3.00759,4.90543 -3.802452,6.41946 -1.460707,2.23711 -3.011187,4.59499 -4.565062,6.90335 -5.256001,7.80806 -7.524459,9.37598 10.268741,8.10346 17.793198,-1.27251 29.219137,0.43512 35.698567,-1.13608 6.47943,-1.5712 -7.0622,-3.34548 -13.89537,-4.52601 -6.833164,-1.18052 -13.640458,-0.22544 -20.745078,-1.1379 0.317403,-0.96173 0.725936,-1.95222 1.206405,-2.95544 82.284553,13.45777 172.964913,34.62451 268.090893,42.86536 2.48802,-0.6997 1.447,-2.99959 -9.53791,-21.0732 -14.13289,-23.25298 -27.48791,-45.68029 -30.64416,-51.45911 -2.86397,-5.24518 -11.16395,-18.965 -20.58726,-34.02921 -6.88777,-11.01387 -14.21984,-23.11543 -17.09621,-28.21987 -2.72764,-4.83913 -15.30125,-26.11502 -24.85469,-42.05308 -4.55984,-7.60857 -10.40794,-17.44336 -12.99719,-21.8562 -8.99675,-15.331533 -14.21811,-24.089145 -16.40456,-27.513704 -1.20942,-1.894545 -2.19991,-3.559468 -2.19991,-3.698192 0,-0.139736 -0.72706,-1.453646 -1.61631,-2.918854 -0.88924,-1.466222 -3.46289,-5.725081 -5.71956,-9.464553 -2.37494,-3.934901 -3.48882,-5.886308 -4.47927,-6.095659 z m 131.3636,8.841632 c -1.80966,-0.108884 -4.62569,2.500356 -14.05106,11.678163 -6.65127,6.476486 -15.52783,14.880566 -19.72722,18.67573 -41.11388,37.155747 -39.37685,35.408017 -38.33062,38.556137 1.53785,4.62447 4.02414,2.83779 32.11643,-23.05904 42.65378,-39.32167 45.15913,-42.024645 41.67445,-44.978352 -0.58715,-0.497938 -1.07876,-0.836343 -1.68198,-0.872638 z M 204.09505,78.926824 c 0.49405,-0.149561 1.40593,1.078198 4.045,4.987025 5.12994,7.600454 18.97054,30.305281 25.88104,42.458321 1.81671,3.19469 4.28423,7.36697 5.48126,9.27062 3.33698,5.30391 13.20892,21.80526 17.2286,28.79614 3.76869,6.55648 18.29304,30.91095 23.0615,38.67139 2.64191,4.29842 5.3804,8.86667 20.84252,34.75641 6.40545,10.72428 11.01695,18.53605 15.67902,26.55875 1.23834,2.13047 4.21103,7.11096 6.60611,11.06713 2.3961,3.95616 5.56887,9.40621 7.05095,12.11082 l 2.69561,4.91842 c -67.30769,-8.39526 -158.66524,-24.18631 -238.279245,-39.99224 -1.40668,0 -1.482897,-1.09324 -0.240434,-3.48598 1.037968,-1.99884 11.140359,-17.87454 14.330689,-22.52027 1.14848,-1.6738 4.32665,-6.65338 7.06049,-11.06622 2.7328,-4.41284 8.29222,-13.059 12.3532,-19.21449 13.99037,-21.20655 19.80835,-30.08496 22.86132,-34.89271 1.6845,-2.65196 5.96811,-9.30372 9.52096,-14.78179 3.55284,-5.47808 7.10394,-11.08117 7.893,-12.45019 3.00546,-5.22189 8.11616,-13.12616 21.45896,-33.1895 7.58492,-11.407772 13.91511,-21.055121 14.0659,-21.440916 0.12032,-0.307825 0.23886,-0.510866 0.40355,-0.56072 z m 147.13372,6.172495 c -1.56499,-0.235711 -3.44822,0.646077 -5.94941,2.732253 -1.58432,1.320409 -6.56216,4.976471 -11.06312,8.123581 -4.50097,3.146099 -9.83515,7.001047 -11.85222,8.564477 -2.0181,1.56342 -6.5892,4.87491 -10.15858,7.35979 -3.57041,2.48387 -10.80809,7.76045 -16.0847,11.72573 -5.27762,3.96528 -12.00694,8.87307 -14.9556,10.90431 -12.23357,8.42673 -12.01223,8.18173 -10.39795,11.51718 1.83116,3.78402 3.3497,2.89791 35.55875,-20.7439 18.26204,-13.40459 34.72043,-25.26541 40.54854,-29.220566 7.29057,-4.947484 9.05814,-8.090139 5.82442,-10.357314 -0.46192,-0.323773 -0.94847,-0.52697 -1.47013,-0.605541 z m -146.7037,8.891942 c -0.43558,-0.212769 -0.67078,0.54683 -1.09836,2.086464 -0.35839,1.29307 -1.49101,3.627053 -2.51556,5.186435 -4.51128,6.86532 -5.4409,8.25516 -8.75517,13.08316 -1.92824,2.80891 -4.45269,6.72584 -5.61047,8.70443 -1.15777,1.97758 -2.27183,3.72101 -2.47529,3.8729 -0.20347,0.15189 -3.22755,4.7595 -6.7205,10.23657 -11.93302,18.71559 -14.13914,22.03025 -14.14534,21.25157 -0.003,-0.42832 -1.36751,1.46224 -3.03136,4.20129 -3.93396,6.47445 -10.64316,17.1644 -14.06484,22.40958 -1.48931,2.28237 -6.57318,10.25048 -11.29826,17.70614 -4.72508,7.45667 -9.80891,15.42468 -11.29615,17.70704 -3.01681,4.63056 -11.93511,18.56767 -14.84969,23.20632 -2.86912,4.56675 -2.86611,4.57016 7.42062,6.41307 2.79373,0.50022 10.23476,2.12818 16.5359,3.61769 10.46954,2.47577 25.22337,5.01222 38.20881,6.56857 158.27042,18.98774 -48.25407,-17.65208 -48.25407,-17.97323 0,-0.58933 12.52888,-20.80707 17.83234,-28.77509 1.8322,-2.75322 5.10989,-7.80988 7.28291,-11.23545 2.17302,-3.42557 6.12208,-9.51363 8.77742,-13.52954 2.65534,-4.01591 6.91925,-10.53932 9.47647,-14.49549 2.55723,-3.95616 6.26132,-9.6826 8.23088,-12.72642 1.96853,-3.04282 5.17294,-8.0224 7.11875,-11.06623 1.94683,-3.0428 5.05725,-7.89803 6.91114,-10.78997 1.85389,-2.89092 3.80867,-5.62983 4.34263,-6.0865 0.53499,-0.45567 2.32367,-3.07032 3.97615,-5.80936 3.51257,-5.82438 7.80456,-11.89678 8.40566,-11.89678 0.50399,0 4.84585,6.55589 9.16401,13.83232 10.23922,17.25949 22.08413,37.50131 32.38015,55.33291 4.30577,7.45567 8.66483,14.85192 9.68937,16.4356 1.02351,1.58267 1.86204,2.97918 1.86204,3.10271 0,0.26429 9.23388,16.17635 13.54584,23.34444 1.64733,2.73904 3.63494,6.10045 4.41677,7.47048 0.78184,1.369 4.25639,7.22081 7.72248,13.00266 8.3151,13.87341 13.61533,23.36148 14.63573,26.19469 0.99252,2.7603 2.31887,2.59496 -12.10218,1.50744 -16.32967,-1.23029 -43.67868,-1.21152 -46.33484,-1.41323 -2.23244,-0.16953 11.85634,4.77938 19.15208,5.95297 15.28678,2.46496 37.79785,4.69802 53.51077,6.61705 1.94994,0.50933 3.70687,0.76692 3.90414,0.57351 1.07618,-1.0541 -2.2855,-8.06154 -10.07491,-21.00641 -2.61816,-4.35209 -6.80002,-11.39907 -9.29218,-15.65901 -4.55983,-7.79487 -12.65117,-21.44703 -20.00577,-33.75297 -5.61432,-9.39273 -12.65408,-21.41389 -15.3941,-26.28341 -1.28481,-2.28237 -5.2721,-9.12873 -8.8611,-15.21536 -3.58796,-6.08664 -7.1073,-12.06363 -7.82097,-13.28074 -0.71367,-1.21713 -2.52525,-4.23825 -4.02489,-6.71402 -3.02714,-4.99608 -17.46982,-29.47999 -22.47788,-38.10518 -1.76713,-3.04383 -4.65121,-7.89905 -6.40698,-10.78997 -1.7568,-2.89093 -4.13804,-7.061472 -5.29272,-9.267893 -1.228,-2.348181 -1.86389,-3.532987 -2.29948,-3.745756 z m -146.089364,4.88915 c -2.870972,-0.253605 -5.296704,2.226429 -4.177402,5.550489 0.529828,1.57457 1.853836,2.49779 10.61615,7.39364 5.505881,3.07623 13.821493,7.76951 18.477376,10.42957 42.32226,24.18152 47.63125,26.91166 49.953,25.69251 1.26208,-0.66122 1.83588,-2.85913 1.18522,-4.53699 -0.52157,-1.34572 -8.20584,-6.04672 -23.48412,-14.37016 C 96.962887,121.38838 63.663784,101.99564 61.339973,100.11528 60.39883,99.353306 59.392695,98.964945 58.435706,98.880411 Z m 304.490634,6.584119 c -1.12227,0.1467 -2.57781,0.7951 -4.78749,1.99957 -15.46108,8.42773 -32.9038,18.10162 -34.0812,18.90258 -0.77564,0.52755 -4.07846,2.44344 -7.33799,4.25799 -3.25953,1.81354 -11.63974,6.53633 -18.6246,10.49452 -6.98383,3.95718 -14.22149,7.98702 -16.08364,8.95506 -1.86317,0.96803 -4.09901,2.31778 -4.96966,3.00026 l -1.58241,1.23944 1.30067,2.34716 c 0.71573,1.29105 1.68116,2.3497 2.14695,2.35173 1.48724,0.007 15.23625,-6.87059 23.98617,-11.99831 4.65589,-2.72892 12.02142,-6.9069 16.36643,-9.28344 4.34604,-2.37654 11.53234,-6.4022 15.9703,-8.94683 4.43693,-2.54361 8.16065,-4.62571 8.27219,-4.62571 0.11154,0 3.33787,-1.76876 7.16958,-3.92962 3.83067,-2.16185 8.66088,-4.77079 10.73372,-5.79654 5.47076,-2.71069 6.98783,-5.51253 4.30874,-7.95894 -0.87685,-0.80095 -1.66549,-1.15562 -2.78776,-1.00892 z M 47.340806,118.8029 c -0.668464,0.0984 -1.135157,0.55171 -1.829202,1.28608 -3.709834,3.92478 -2.69224,4.78767 17.804798,15.10286 55.244718,27.8015 56.863728,28.49243 59.004738,25.20862 1.00285,-1.53811 -0.13149,-4.72064 -2.00396,-5.62184 -21.929546,-10.55517 -31.771078,-15.43318 -44.585083,-22.10408 -8.53613,-4.44422 -18.15723,-9.42299 -21.381645,-11.06438 -4.220942,-2.14921 -5.895538,-2.97128 -7.009646,-2.80726 z m 327.327584,9.07488 c -3.24816,-0.58224 -34.15895,11.31755 -62.46295,24.04877 -1.39739,0.6278 -5.7138,2.57992 -9.59404,4.33574 -3.88025,1.75684 -9.21443,3.94115 -11.85222,4.85347 -6.92185,2.39477 -9.59404,3.49951 -9.59404,3.9653 0,0.68855 3.35858,5.00348 3.89461,5.00348 2.36615,0 25.7664,-8.87784 36.45799,-13.83139 6.02125,-2.79068 19.13988,-8.40661 24.46915,-10.47531 1.44179,-0.55996 6.55736,-2.56172 11.36817,-4.44918 4.81183,-1.88746 10.66762,-4.02929 13.01519,-4.75835 7.01274,-2.18211 9.74929,-7.71539 4.29814,-8.69253 z M 38.03638,141.72505 c 0.85283,5.58971 28.609236,16.53527 47.854302,25.44613 26.937608,12.14898 30.525938,13.02488 30.458808,7.43846 -0.031,-2.52133 -1.19533,-3.2826 -11.91894,-7.79062 -5.720707,-2.4059 -15.978081,-6.91747 -22.79459,-10.0271 -6.816509,-3.10864 -15.949945,-7.21619 -20.295987,-9.12794 -4.345007,-1.91277 -8.83958,-4.37196 -15.513562,-7.59703 -5.843395,-4.29103 -9.727539,0.44287 -7.790031,1.6581 z m 167.71946,-8.93433 c -1.20165,-0.20096 -2.54625,1.40261 -4.98238,5.20106 -0.87892,1.36901 -2.81405,4.11384 -4.30026,6.09749 -3.5291,4.71155 -6.79354,10.37525 -7.12404,12.35688 l -0.26268,1.57697 1.79002,-1.02448 c 2.3424,-1.33965 9.21976,-6.94161 14.84545,-12.09162 5.08449,-4.65586 5.18897,-5.11546 2.24652,-9.8908 -0.82225,-1.3351 -1.49164,-2.10493 -2.21263,-2.2255 z m 8.05717,14.00977 c -0.82779,0.0188 -1.8561,0.85916 -3.76008,2.5365 -0.77564,0.68451 -4.58471,3.56973 -8.46496,6.41307 -3.88025,2.84333 -8.8329,6.67674 -11.00593,8.51964 -2.17302,1.84291 -5.85424,4.86984 -8.18321,6.72591 -7.03237,5.60768 -11.28662,10.49824 -11.28662,12.97705 16.81893,-5.77701 32.06234,-19.55654 45.61355,-28.26834 2.6636,-1.89151 2.65169,-2.12847 -0.35377,-6.51094 -1.10355,-1.609 -1.73118,-2.41176 -2.55898,-2.39289 z m 166.55801,8.11626 c -1.8096,0.11189 -4.88768,0.77252 -10.864,2.08281 -33.23178,7.25872 -58.28391,12.84744 -74.7579,19.04618 -5.91282,2.22465 -5.41921,3.00211 -3.44552,5.79381 0.54312,2.49406 33.54872,-7.42176 51.13186,-11.52358 8.19222,-2.18415 28.58842,-5.80932 35.51957,-7.00214 6.53559,-1.12498 8.8539,-4.06411 5.66873,-7.18692 -0.90268,-0.88499 -1.44314,-1.32205 -3.25274,-1.21016 z m -157.90875,5.99962 c -0.58103,0.11074 -1.34046,0.62367 -2.62358,1.42146 -1.46762,0.91233 -2.92281,1.6593 -3.23368,1.6593 -2.58924,0 -39.61435,19.57733 -41.52193,21.95588 -1.89933,2.36743 -1.43228,2.35441 5.64966,-0.15274 3.73979,-1.32447 7.867,-2.68738 9.17143,-3.02863 3.03334,-0.79386 13.57604,-4.81748 21.56064,-8.22786 3.41446,-1.45913 8.30043,-3.32755 10.85765,-4.1528 5.79919,-1.87126 5.77351,-1.82188 3.15741,-6.13042 -1.57632,-2.59601 -2.04922,-3.52879 -3.0176,-3.34419 z m 7.09756,14.70037 c -1.41082,0 -16.21481,4.14152 -17.82598,4.98703 -0.55771,0.29264 -6.68785,1.92142 -13.62211,3.61953 -20.51769,5.02241 -23.61439,5.98021 -23.61439,7.29758 0,1.15536 9.65232,0.56139 24.83351,-1.52757 18.60062,-1.75696 21.42074,-1.06544 28.80226,-1.12235 3.58176,0.66425 6.25082,0.96335 9.94781,1.03271 L 232.3264,177.3547 c -0.86239,-1.00347 -2.02915,-1.73796 -2.76657,-1.73796 z m 155.61351,4.83518 c -0.37995,-0.012 -0.78834,0.0153 -1.13227,0.0841 -0.68785,0.1367 -5.13213,0.49179 -9.87684,0.78848 -4.74368,0.29567 -10.02318,0.67057 -11.73041,0.83056 -1.70723,0.161 -10.7226,0.67078 -20.03437,1.1315 -31.52428,1.5604 -38.2891,1.53829 -43.54813,5.95114 -4.07335,3.71816 31.36057,0.75108 49.75598,0.56255 40.74827,-1.55736 38.0371,-1.36039 39.27647,-2.86306 1.92825,-2.33805 1.12258,-5.26197 -1.74552,-6.33531 -0.2329,-0.0871 -0.58498,-0.13812 -0.96491,-0.15002 z m -191.91687,14.10399 c -4.24986,-0.0141 -7.26199,0.11851 -10.38313,0.39241 -9.6278,0.84348 -9.34279,2.17836 0.7033,3.30029 33.81917,3.77694 46.15311,5.39204 61.18559,8.01565 5.51104,0.96196 5.29899,1.39956 1.85355,-3.83449 -1.59362,-2.4221 -2.94056,-4.46806 -2.99323,-4.54704 -0.0527,-0.079 -2.4842,-0.38089 -5.40393,-0.67049 -2.91974,-0.2896 -7.645,-0.79672 -10.5007,-1.12784 -2.85571,-0.33111 -10.34704,-0.80077 -16.64817,-1.04278 -8.07499,-0.31086 -13.56342,-0.47166 -17.81328,-0.48571 z m -30.87189,3.82076 c -0.94773,-0.0564 -1.43201,0.10304 -1.43201,0.48023 0,0.30479 0.33022,0.5534 0.73508,0.5534 0.40382,0 3.13381,1.39559 6.06697,3.1018 27.8031,16.17501 80.72292,40.97236 101.9894,47.7911 7.28023,2.33502 7.27623,2.33947 3.73784,-3.3067 -3.53219,-5.63604 -2.89408,-5.2772 -23.35807,-13.14902 -16.13138,-6.20511 -42.78045,-17.06176 -52.20375,-21.26803 -3.41446,-1.52394 -9.20458,-3.98973 -12.86691,-5.47823 -3.66232,-1.4885 -8.61499,-3.69323 -11.00593,-4.89921 -2.39094,-1.20598 -5.74304,-2.55982 -7.45027,-3.00941 -1.85336,-0.48756 -3.26462,-0.75948 -4.21235,-0.81593 z m 146.80326,1.57606 c -4.66415,0 -4.94836,0.32967 -2.86932,3.32589 2.86913,4.13236 6.42112,4.94639 27.79603,6.37008 6.82891,0.45567 16.47951,1.31871 21.44626,1.91815 4.96573,0.59945 11.82396,1.3455 15.2384,1.65839 3.41446,0.31288 8.79683,0.95437 11.96237,1.42421 7.99287,1.18877 11.72375,-0.89486 8.97443,-5.00898 -1.10304,-1.65051 -1.71308,-1.78675 -9.65018,-2.17154 -3.41446,-0.16505 -11.541,-0.93487 -18.06006,-1.71051 -6.51803,-0.77462 -16.04178,-1.76693 -21.16346,-2.20538 -19.56132,-1.67481 -28.63145,-2.71238 -29.28418,-3.35334 -0.13839,-0.13569 -2.11399,-0.24697 -4.39029,-0.24697 z m -131.43457,0.0914 c -1.95549,-0.0734 -3.25592,0.0604 -3.25592,0.42535 0,0.7483 26.72728,9.53444 44.0216,14.47079 4.50095,1.28496 13.77107,4.18355 20.59997,6.43959 6.8289,2.25705 14.67009,4.84628 17.4256,5.75355 6.41063,2.10922 6.42397,2.09744 3.43916,-2.82372 -4.07132,-6.71039 -3.02355,-6.20734 -25.94459,-12.43371 -6.20715,-1.68697 -14.08,-3.67648 -17.49445,-4.42174 -14.08849,-3.07421 -27.36417,-5.84304 -31.60591,-6.59235 -2.6197,-0.46326 -5.22998,-0.74434 -7.18546,-0.81776 z m -18.14798,2.00414 c -3.39646,-0.25696 19.51715,14.88912 28.96008,22.26782 7.73673,6.04513 31.85662,21.80431 46.32001,30.26242 5.74239,3.35774 12.09226,7.09629 14.10933,8.30835 5.62051,3.37394 8.48491,3.99568 27.55771,5.99048 10.03266,1.04903 9.62458,1.17717 7.75107,-2.44686 -1.93342,-3.74049 -4.61506,-4.87102 -17.81328,-7.50982 -8.83564,-1.76695 -36.79785,-15.43329 -54.46191,-26.61728 -1.5523,-0.98221 -5.61505,-3.47168 -9.02951,-5.53128 -3.41444,-2.06061 -10.95711,-6.81944 -16.76044,-10.5741 -5.80436,-3.75567 -10.7002,-6.82743 -10.88094,-6.82743 -0.18074,0 -2.54337,-1.31891 -5.25035,-2.92891 -2.70699,-1.61103 -5.73766,-3.25615 -6.73638,-3.65612 z m 156.75107,13.91556 c -3.13806,-0.16494 -3.92026,0.38542 -3.44233,1.86785 1.24143,3.84478 3.25146,4.7609 15.31255,6.97745 4.8955,0.89917 15.88536,3.36169 24.42149,5.4709 32.96506,8.14725 32.73392,8.12517 32.73392,3.16857 0,-2.91117 -0.93723,-3.5529 -6.48959,-4.44093 -2.79374,-0.44655 -11.18266,-2.29863 -18.6426,-4.11622 -19.20293,-4.67814 -33.23429,-7.67683 -39.92894,-8.53246 -1.61013,-0.2058 -2.91848,-0.34017 -3.9645,-0.39516 z m 7.00753,16.23527 c -1.24091,0.16063 -0.96452,1.27169 0.41943,3.38445 2.99617,4.57283 3.94725,5.20055 11.69122,7.71379 4.01348,1.30319 9.41218,3.2199 11.99626,4.25982 2.58511,1.03992 6.90258,2.64675 9.59511,3.56922 2.69251,0.92348 7.48341,2.77718 10.64792,4.11987 6.52009,2.76537 7.37041,2.8883 9.09623,1.3117 2.72351,-2.4869 1.02478,-6.07022 -3.3915,-7.15672 -2.2794,-0.55996 -6.98841,-2.2413 -26.97834,-9.63012 -4.50096,-1.66368 -10.97661,-4.0286 -14.39106,-5.25686 -4.68584,-1.68596 -7.44435,-2.47576 -8.68527,-2.31515 z"
       sodipodi:nodetypes="scccccsccssscccccccccccsssccccccccssccccccscccccsssscccsccccccsccsssccccsscscccccccccsccccsccssscccccccscsssccscsccccccccccscssscccccscccscccccsccccccccsccccsscccccccssssccccccccccscccssccscccsscccssccccsccccccccscccccccsscsscccssscccccssscscccccsssscsccccssccccccssssscsccssscsssscccscsscsscccscsccccssscccccccsccccccccccscccscccsccssscccccccscs" />
  </g>
  <g
     inkscape:groupmode="layer"
     id="layer1"
     inkscape:label="logo-with-text"
     style="display:inline" />
</svg>
