<?xml version="1.0" encoding="UTF-8" standalone="no"?>
<svg
   id="svg"
   width="400"
   height="327.3224043715847"
   viewBox="0, 0, 400,327.3224043715847"
   version="1.1"
   sodipodi:docname="logo.svg"
   inkscape:version="1.3.2 (091e20e, 2023-11-25, custom)"
   xmlns:inkscape="http://www.inkscape.org/namespaces/inkscape"
   xmlns:sodipodi="http://sodipodi.sourceforge.net/DTD/sodipodi-0.dtd"
   xmlns="http://www.w3.org/2000/svg"
   xmlns:svg="http://www.w3.org/2000/svg">
  <defs
     id="defs7" />
  <sodipodi:namedview
     id="namedview5"
     pagecolor="#ffffff"
     bordercolor="#000000"
     borderopacity="0.25"
     inkscape:showpageshadow="2"
     inkscape:pageopacity="0.0"
     inkscape:pagecheckerboard="0"
     inkscape:deskcolor="#d1d1d1"
     showgrid="false"
     inkscape:zoom="3.0586888"
     inkscape:cx="102.4949"
     inkscape:cy="58.194871"
     inkscape:window-width="3240"
     inkscape:window-height="2036"
     inkscape:window-x="-12"
     inkscape:window-y="-12"
     inkscape:window-maximized="1"
     inkscape:current-layer="svg" />
  <g
     id="svgg">
    <path
       id="path0"
       d="m 268.95913,28.587 c 1.719,1.83 0.78,4.957 -6.433,21.404 -1.452,3.311 -5.037,11.676 -7.967,18.588 -10.264,24.218 -14.762,33.607 -16.099,33.607 -0.204,0 -1.294,-0.799 -2.422,-1.776 l -2.051,-1.776 2.512,-6.128 c 1.381,-3.37 4.007,-9.395 5.834,-13.388 3.776,-8.251 14.95,-35.584 18,-44.028 2.856,-7.91 5.46,-9.873 8.626,-6.503 m 21.705,9.913 c 2.088,2.088 1.753,3.134 -4.39,13.686 -1.575,2.705 -4.284,7.377 -6.02,10.382 -2.986,5.167 -7.807,13.139 -16.192,26.776 -5.98,9.727 -15.968,24.469 -17.002,25.097 -1.147,0.696 -2.306,0.09 -3.893,-2.036 l -1.078,-1.445 3.745,-6.163 c 2.06,-3.39 4.895,-7.884 6.301,-9.988 3.385,-5.064 20.197,-33.091 22.054,-36.767 0.803,-1.588 2.277,-4.17 3.277,-5.738 0.999,-1.568 3.211,-5.467 4.916,-8.665 3.672,-6.891 5.436,-7.985 8.282,-5.139 m 20.218,13.115 c 2.687,2.686 3.811,0.936 -21.873,34.056 -8.521,10.986 -32.68,38.727 -35.122,40.327 -1.402,0.918 -1.445,0.904 -3.251,-1.066 -2.304,-2.514 -3.004,-1.344 9.487,-15.86 12.163,-14.134 23.767,-28.411 29.584,-36.394 2.298,-3.156 5.93,-7.951 8.07,-10.656 2.139,-2.705 4.671,-6.075 5.626,-7.489 2.99,-4.429 5.133,-5.265 7.479,-2.918 m -107.401,11.889 c 2.185,3.693 4.677,7.899 5.538,9.347 0.861,1.447 1.565,2.744 1.565,2.882 0,0.137 0.959,1.781 2.13,3.652 2.117,3.382 7.172,12.031 15.883,27.172 2.507,4.358 8.17,14.071 12.585,21.585 9.25,15.74 21.424,36.751 24.065,41.53 2.785,5.041 9.884,16.992 16.553,27.869 9.124,14.877 17.16,28.427 19.933,33.607 3.056,5.707 15.987,27.855 29.671,50.819 10.636,17.849 11.644,20.12 9.235,20.811 -93.83128,-8.29101 -183.24591,-29.87435 -264.096761,-43.11428 -5.674,-0.502 -5.666,-0.572 0.48768,-10.7434 8.883215,-15.06173 26.314461,-40.53279 36.112081,-55.75132 5.768,-8.954 11.374,-17.96 14.627,-23.497 1.766,-3.005 3.533,-5.733 3.927,-6.06 0.395,-0.328 3.904,-5.615 7.799,-11.749 3.895,-6.134 8.677,-13.612 10.627,-16.617 1.95,-3.006 4.521,-7.186 5.713,-9.29 1.193,-2.104 4.526,-7.513 7.409,-12.022 2.882,-4.508 6.269,-9.918 7.526,-12.021 1.257,-2.104 4.918,-8.008 8.135,-13.12 5.31,-8.436 8.019,-12.839 16.62,-27.004 3.641,-5.996 3.357,-6.057 7.956,1.715 m 124.482,3.573 c 3.374,2.917 0.949,5.587 -40.35,44.42 -27.2,25.575 -29.608,27.339 -31.097,22.772 -1.013,-3.109 -2.695,-1.383 37.113,-38.077 4.066,-3.748 12.661,-12.047 19.101,-18.443 12.168,-12.085 12.959,-12.639 15.233,-10.672 m -129.549,11.758 c -0.146,0.381 -6.276,9.909 -13.62,21.175 -12.919,19.814 -17.867,27.62 -20.777,32.777 -0.764,1.352 -4.202,6.885 -7.642,12.295 -3.44,5.41 -7.588,11.979 -9.219,14.598 -2.956,4.748 -8.589,13.516 -22.135,34.459 -3.932,6.079 -9.315,14.618 -11.961,18.976 -2.647,4.358 -5.724,9.276 -6.836,10.929 -3.089,4.588 -12.870002,20.266 -13.875002,22.24 -1.203,2.363 -1.13,3.443 0.232,3.443 77.085262,15.6095 165.541182,31.20407 230.711002,39.495 l -2.61,-4.857 c -1.435,-2.671 -4.507,-8.054 -6.827,-11.961 -2.319,-3.907 -5.197,-8.825 -6.396,-10.929 -4.514,-7.923 -8.979,-15.638 -15.181,-26.229 -14.971,-25.568 -17.623,-30.079 -20.181,-34.324 -4.617,-7.664 -18.68,-31.716 -22.329,-38.191 -3.892,-6.904 -13.45,-23.2 -16.681,-28.438 -1.159,-1.88 -3.548,-6.001 -5.307,-9.156 -6.691,-12.002 -20.092,-34.424 -25.059,-41.93 -3.407,-5.147 -3.841,-5.588 -4.307,-4.372 m 144.274,6.14 c 3.131,2.239 1.42,5.343 -5.639,10.229 -5.643,3.906 -21.579,15.619 -39.261,28.857 -31.186,23.348 -32.656,24.223 -34.429,20.486 -1.563,-3.294 -1.778,-3.052 10.067,-11.374 2.855,-2.006 9.371,-6.852 14.481,-10.768 5.109,-3.916 12.117,-9.127 15.574,-11.58 3.456,-2.454 7.882,-5.725 9.836,-7.269 1.953,-1.544 7.117,-5.351 11.475,-8.458 4.358,-3.108 9.178,-6.718 10.712,-8.022 3.229,-2.747 5.395,-3.38 7.184,-2.101 m -141.241,11.883 c 1.118,2.179 3.424,6.298 5.125,9.153 1.7,2.855 4.492,7.65 6.203,10.656 4.849,8.518 18.833,32.697 21.764,37.631 1.452,2.445 3.206,5.429 3.897,6.631 0.691,1.202 4.099,7.104 7.573,13.115 3.475,6.011 7.335,12.773 8.579,15.027 2.653,4.809 9.469,16.68 14.905,25.956 7.121,12.153 14.956,25.636 19.371,33.334 2.413,4.207 6.462,11.166 8.997,15.464 7.542,12.784 10.797,19.705 9.755,20.746 -0.191,0.191 -1.892,-0.064 -3.78,-0.567 -15.21384,-1.89518 -37.01019,-4.10063 -51.81143,-6.53496 -7.064,-1.159 -20.70485,-6.04606 -18.54332,-5.87864 2.57179,0.1992 29.05175,0.1806 44.86275,1.3956 13.963,1.074 12.679,1.237 11.718,-1.489 -0.988,-2.798 -6.12,-12.168 -14.171,-25.869 -3.356,-5.71 -6.72,-11.489 -7.477,-12.841 -0.757,-1.353 -2.682,-4.672 -4.277,-7.377 -4.175,-7.079 -13.115,-22.794 -13.115,-23.055 0,-0.122 -0.812,-1.501 -1.803,-3.064 -0.992,-1.564 -5.213,-8.868 -9.382,-16.231 -9.969,-17.61 -21.438,-37.6 -31.352,-54.645 -4.181,-7.186 -8.385,-13.661 -8.873,-13.661 -0.582,0 -4.737,5.997 -8.138,11.749 -1.6,2.705 -3.332,5.287 -3.85,5.737 -0.517,0.451 -2.41,3.156 -4.205,6.011 -1.795,2.856 -4.806,7.651 -6.691,10.656 -1.884,3.006 -4.987,7.924 -6.893,10.929 -1.907,3.006 -5.493,8.661 -7.969,12.568 -2.476,3.907 -6.605,10.349 -9.176,14.315 -2.571,3.966 -6.395,9.979 -8.499,13.362 -2.104,3.383 -5.277,8.376 -7.051,11.095 -5.135,7.869 -17.266,27.836 -17.266,28.418 0,0.31716 199.96434,36.50177 46.721,17.75 -12.573,-1.537 -26.858,-4.042 -36.995,-6.487 -6.101,-1.471 -13.305,-3.079 -16.01,-3.573 -9.96,-1.82 -9.963,-1.823 -7.185,-6.333 2.822,-4.581 11.457,-18.345 14.378,-22.918 1.44,-2.254 6.362,-10.123 10.937,-17.487 4.575,-7.363 9.497,-15.232 10.939,-17.486 3.313,-5.18 9.809,-15.737 13.618,-22.131 1.611,-2.705 2.932,-4.572 2.935,-4.149 0.006,0.769 2.143,-2.505 13.697,-20.988 3.382,-5.409 6.31,-9.959 6.507,-10.109 0.197,-0.15 1.275,-1.872 2.396,-3.825 1.121,-1.954 3.565,-5.822 5.432,-8.596 3.209,-4.768 4.11,-6.141 8.478,-12.921 0.992,-1.54 2.088,-3.845 2.435,-5.122 0.828,-3.041 0.912,-2.999 3.29,1.639 M 60.584128,99.207 c 2.25,1.857 34.491,21.008 48.088002,28.564 14.793,8.22 22.233,12.863 22.738,14.192 0.63,1.657 0.075,3.828 -1.147,4.481 -2.248,1.204 -7.389,-1.493 -48.367002,-25.374 -4.508,-2.627 -12.559,-7.262 -17.89,-10.3 -8.484,-4.835 -9.766,-5.746 -10.279,-7.301 -1.445,-4.377 3.212,-7.272 6.857,-4.262 m 294.706002,6.279 c 2.594,2.416 1.125,5.183 -4.172,7.86 -2.007,1.013 -6.684,3.589 -10.393,5.724 -3.71,2.134 -6.834,3.881 -6.942,3.881 -0.108,0 -3.713,2.056 -8.009,4.568 -4.297,2.513 -11.255,6.489 -15.463,8.836 -4.207,2.347 -11.339,6.473 -15.847,9.168 -8.472,5.064 -21.784,11.856 -23.224,11.849 -0.451,-0.002 -1.386,-1.047 -2.079,-2.322 l -1.259,-2.318 1.532,-1.224 c 0.843,-0.674 3.008,-2.007 4.812,-2.963 1.803,-0.956 8.811,-4.936 15.573,-8.844 6.763,-3.909 14.877,-8.573 18.033,-10.364 3.156,-1.792 6.353,-3.684 7.104,-4.205 1.14,-0.791 18.029,-10.345 32.999,-18.668 4.279,-2.379 5.637,-2.56 7.335,-0.978 M 53.816128,120.434 c 3.122,1.621 12.438,6.538 20.703,10.927 12.407,6.588 21.936,11.406 43.169002,21.83 1.813,0.89 2.911,4.033 1.94,5.552 -2.073,3.243 -3.641,2.56 -57.131002,-24.896 -19.846,-10.187 -20.831,-11.039 -17.239,-14.915 1.792,-1.934 2.019,-1.894 8.558,1.502 m 310.144002,6.19 c 5.278,0.965 2.628,6.43 -4.162,8.585 -2.273,0.72 -7.943,2.835 -12.602,4.699 -4.658,1.864 -9.611,3.841 -11.007,4.394 -5.16,2.043 -17.862,7.589 -23.692,10.345 -10.352,4.892 -33.009,13.659 -35.3,13.659 -0.519,0 -3.771,-4.261 -3.771,-4.941 0,-0.46 2.588,-1.551 9.29,-3.916 2.554,-0.901 7.718,-3.058 11.475,-4.793 3.757,-1.734 7.937,-3.662 9.29,-4.282 27.405,-12.573 57.334,-24.325 60.479,-23.75 m -161.405,7.05 c 2.849,4.716 2.748,5.17 -2.175,9.768 -5.447,5.086 -12.106,10.618 -14.374,11.941 l -1.734,1.012 0.255,-1.558 c 0.32,-1.957 3.481,-7.55 6.898,-12.203 1.439,-1.959 3.312,-4.67 4.163,-6.022 3.774,-6.002 4.844,-6.454 6.967,-2.938 M 41.185128,136.94 c 6.462,3.185 15.192,7.335 19.399,9.224 4.208,1.888 13.051,5.945 19.651,9.015 6.6,3.071 16.532,7.526 22.071002,9.902 10.383,4.452 11.51,5.204 11.54,7.694 0.065,5.517 -3.409,4.652 -29.491002,-7.346 -57.45,-26.428 -59.278,-27.429 -57.803,-31.659 0.439,-1.261 1.851,-2.625 2.712,-2.622 0.095,0 5.46,2.607 11.921,5.792 m 169.506002,10.735 c 2.91,4.328 2.922,4.562 0.343,6.43 -13.12079,8.60354 -27.88029,22.21178 -44.165,27.917 0,-2.448 4.119,-7.278 10.928,-12.816 2.255,-1.833 5.82,-4.822 7.924,-6.642 2.104,-1.82 6.899,-5.606 10.656,-8.414 3.757,-2.808 7.445,-5.657 8.196,-6.333 3.687,-3.313 3.981,-3.32 6.118,-0.142 m 161.94,6.847 c 3.084,3.084 0.839,5.987 -5.489,7.098 -6.711,1.178 -26.4596,4.75805 -34.3916,6.91505 -17.02466,4.05084 -48.9822,13.84318 -49.50806,11.38011 -1.911,-2.757 -2.38834,-3.52494 3.33666,-5.72194 15.95074,-6.12171 40.20675,-11.6407 72.383,-18.80922 11.573,-2.588 11.921,-2.61 13.669,-0.862 m -153.121,8.033 c 2.533,4.255 2.558,4.206 -3.057,6.054 -2.476,0.815 -7.207,2.66 -10.513,4.101 -7.731,3.368 -17.939,7.342 -20.876,8.126 -1.263,0.337 -5.259,1.683 -8.88,2.991 -6.857,2.476 -7.309,2.489 -5.47,0.151 1.847,-2.349 37.696,-21.683 40.203,-21.683 0.301,0 1.71,-0.738 3.131,-1.639 3.313,-2.101 3.02,-2.203 5.462,1.899 m 12.20081,25.324 c -3.57956,-0.0685 -6.16381,-0.364 -9.63181,-1.02 -7.14706,0.0562 -9.87819,-0.62613 -27.888,1.109 -14.699,2.063 -24.044,2.649 -24.044,1.508 0,-1.301 2.998,-2.247 22.864,-7.207 6.714,-1.677 12.65,-3.285 13.19,-3.574 1.56,-0.835 15.893,-4.925 17.259,-4.925 0.714,0 1.844,0.725 2.679,1.716 m 148.926,3.207 c 2.777,1.06 3.557,3.948 1.69,6.257 -1.2,1.484 1.425,1.289 -38.029,2.827 -17.81113,0.18619 -52.11876,3.11656 -48.1748,-0.55539 5.092,-4.358 11.6418,-4.33661 42.1648,-5.87761 9.016,-0.455 17.745,-0.958 19.398,-1.117 1.653,-0.158 6.765,-0.528 11.358,-0.82 4.594,-0.293 8.897,-0.644 9.563,-0.779 0.666,-0.136 1.579,-0.107 2.03,0.065 m -70.255,19.354 c 0.632,0.633 9.414,1.658 28.354,3.312 4.959,0.433 14.18,1.413 20.491,2.178 6.312,0.766 14.181,1.526 17.487,1.689 7.685,0.38 8.275,0.515 9.343,2.145 2.662,4.063 -0.95,6.12 -8.689,4.946 -3.065,-0.464 -8.277,-1.097 -11.583,-1.406 -3.306,-0.309 -9.946,-1.046 -14.754,-1.638 -4.809,-0.592 -14.153,-1.444 -20.765,-1.894 -20.696,-1.406 -24.135,-2.21 -26.913,-6.291 -2.013,-2.959 -1.738,-3.285 2.778,-3.285 2.204,0 4.117,0.11 4.251,0.244 m -99.253,-5.094 c 6.101,0.239 13.355,0.703 16.12,1.03 2.765,0.327 7.34,0.828 10.167,1.114 2.827,0.286 5.181,0.584 5.232,0.662 0.051,0.078 1.355,2.099 2.898,4.491 3.336,5.169 3.542,4.736 -1.794,3.786 -14.555,-2.591 -26.497,-4.186 -59.242,-7.916 -9.727,-1.108 -10.003,-2.426 -0.681,-3.259 6.044,-0.541 11.663,-0.522 27.3,0.092 m -43.06,4.1 c 1.653,0.444 4.899,1.781 7.214,2.972 2.315,1.191 7.11,3.368 10.656,4.838 3.546,1.47 9.152,3.905 12.458,5.41 9.124,4.154 34.927,14.876 50.546,21.004 19.814,7.774 19.196,7.419 22.616,12.985 3.426,5.576 3.43,5.572 -3.619,3.266 -20.591,-6.734 -71.83,-31.223 -98.75,-47.197 -2.84,-1.685 -5.483,-3.063 -5.874,-3.063 -0.392,0 -0.712,-0.246 -0.712,-0.547 0,-0.745 1.876,-0.631 5.465,0.332 m 17.76,1.648 c 4.107,0.74 16.96,3.475 30.601,6.511 3.306,0.736 10.929,2.7 16.939,4.366 22.193,6.149 21.179,5.653 25.121,12.28 2.89,4.86 2.877,4.871 -3.33,2.788 -2.668,-0.896 -10.26,-3.453 -16.872,-5.682 -6.612,-2.228 -15.588,-5.09 -19.946,-6.359 -16.745,-4.875 -42.623,-13.552 -42.623,-14.291 0,-0.721 5.037,-0.528 10.11,0.387 m -20.884,1.9 c 0.967,0.395 3.902,2.02 6.523,3.611 2.621,1.59 4.908,2.892 5.083,2.892 0.175,0 4.916,3.034 10.536,6.743 5.619,3.708 12.922,8.407 16.228,10.442 3.306,2.034 7.24,4.493 8.743,5.463 17.103,11.045 44.177,24.541 52.732,26.286 12.779,2.606 15.375,3.723 17.247,7.417 1.814,3.579 2.209,3.452 -7.505,2.416 -18.467,-1.97 -21.24,-2.584 -26.682,-5.916 -1.953,-1.197 -8.101,-4.889 -13.661,-8.205 -14.004,-8.353 -37.358,-23.916 -44.849,-29.886 -9.143,-7.287 -31.32864,-22.24461 -28.04005,-21.99084 M 311.33813,214.006 c 6.482,0.845 20.068,3.806 38.661,8.426 7.223,1.795 15.345,3.624 18.05,4.065 5.376,0.877 6.284,1.511 6.284,4.386 0,4.895 0.224,4.917 -31.694,-3.129 -8.265,-2.083 -18.906,-4.515 -23.646,-5.403 -11.678,-2.189 -13.624,-3.094 -14.826,-6.891 -0.617,-1.952 0.935,-2.267 7.171,-1.454 m 11.356,17.929 c 3.306,1.213 9.576,3.549 13.934,5.192 19.355,7.297 23.915,8.957 26.122,9.51 4.276,1.073 5.92,4.612 3.283,7.068 -1.671,1.557 -2.494,1.436 -8.807,-1.295 -3.064,-1.326 -7.703,-3.157 -10.31,-4.069 -2.607,-0.911 -6.787,-2.498 -9.29,-3.525 -2.502,-1.027 -7.729,-2.92 -11.615,-4.207 -7.498,-2.482 -8.419,-3.102 -11.32,-7.618 -2.68,-4.173 -1.071,-4.386 8.003,-1.056"
       stroke="none"
       fill="#000000"
       fill-rule="evenodd"
       sodipodi:nodetypes="cccsccccccccccccccccccccccccccccccsccccccsccccccsccccccccccccccccsccccscccccccccccccccccccccccccccsccccccccscccccscccscccccssscsccccccccccscsccccccccccccccscccccccccccccccssccccccccsscccccccccccccccccccccccscsscccccccccccccccscccccsccsccccccccccccccccscccsccsssccscccsscccccssccccccccscccscccccccccccccscccccscccccccc" />
    <path
       style="fill:#000000"
       d="m 78.459731,247.18991 c 0,0 -5.026691,8.06284 -9.530809,14.88755 -5.089057,7.71102 -7.285815,9.25946 9.942227,8.00276 17.228042,-1.2567 28.291261,0.42941 34.564881,-1.12226 6.27363,-1.55167 -6.83787,-3.30418 -13.454004,-4.47004 -6.616125,-1.16586 -13.207137,-0.22196 -20.086096,-1.12308 1.581355,-4.88718 5.423668,-10.53007 9.769444,-14.73421 z"
       id="path1004"
       sodipodi:nodetypes="cszzzccc"
       inkscape:export-filename="path1004.png"
       inkscape:export-xdpi="300"
       inkscape:export-ydpi="300" />
  </g>
</svg>
